<svg id="Layer_3" data-name="Layer 3" xmlns="http://www.w3.org/2000/svg" viewBox="0 0 487.61 483.5"><defs><style>.cls-1,.cls-2{fill:#fff;}.cls-2{stroke:#fff;}</style></defs><title>jad2020-stroke</title><path class="cls-1" d="M365.87,173.9A110,110,0,0,1,467.82,325.26a69,69,0,0,1,6.7,136.27,30,30,0,0,1-33.92,46.59,137.53,137.53,0,0,1-269.19,0,30,30,0,0,1-34.06-46.53,69,69,0,0,1,6.7-136.27A110,110,0,0,1,305.86,191.71a109.38,109.38,0,0,1,60-17.81m0-20a129.52,129.52,0,0,0-60,14.67,130.08,130.08,0,0,0-187,142.48,89,89,0,0,0-7.37,162.62,51.11,51.11,0,0,0-.39,6.33,50.07,50.07,0,0,0,45.53,49.8,157.54,157.54,0,0,0,298.86-.11,50.07,50.07,0,0,0,45.36-49.79,51.11,51.11,0,0,0-.39-6.33A89,89,0,0,0,493.05,311a130,130,0,0,0-127.18-157Z" transform="translate(-62.13 -153.9)"/><circle class="cls-2" cx="296.78" cy="288.1" r="32"/><circle class="cls-2" cx="190.97" cy="288.1" r="32"/></svg>