<svg width="24" height="24" xmlns="http://www.w3.org/2000/svg">
 <title>Arch Linux icon</title>

 <g>
  <title>background</title>
  <rect fill="none" id="canvas_background" height="602" width="802" y="-1" x="-1"/>
 </g>
 <g>
  <title>Layer 1</title>
  <path fill="#ffffff" id="svg_1" d="m11.39023,0.60509c-1.01457,2.48659 -1.62595,4.11341 -2.7551,6.52653c0.69271,0.7347 1.54286,1.58921 2.92303,2.55394c-1.48425,-0.6105 -2.49621,-1.22362 -3.25277,-1.85948c-1.4449,3.01575 -3.7102,7.31195 -8.30554,15.56851c3.61225,-2.08513 6.41196,-3.36996 9.02099,-3.86151c-0.11195,-0.48105 -0.1758,-1.00321 -0.17143,-1.54723l0.0035,-0.11545c0.05773,-2.31429 1.26123,-4.09417 2.68688,-3.9726c1.42566,0.11983 2.53383,2.09563 2.47785,4.40904c-0.0105,0.43557 -0.06035,0.85452 -0.14607,1.24286c2.58105,0.50466 5.3519,1.78688 8.91429,3.84402c-0.70233,-1.29271 -1.32945,-2.4586 -1.92857,-3.56939c-0.94373,-0.73119 -1.92682,-1.6828 -3.93324,-2.71312c1.3793,0.3586 2.36677,0.77143 3.13644,1.23411c-6.09008,-11.3344 -6.58163,-12.8414 -8.67026,-17.74023zm11.50758,20.7551l0,-0.62361l-0.23353,0l0,-0.08397l0.56152,0l0,0.08397l-0.2344,0l0,0.62361l-0.09359,0m0.42508,0l0,-0.70758l0.14169,0l0.16705,0.50117c0.01575,0.04723 0.02712,0.08221 0.03411,0.10583c0.00787,-0.02537 0.02012,-0.06385 0.03849,-0.1137l0.1688,-0.4933l0.12682,0l0,0.70758l-0.09096,0l0,-0.593l-0.20641,0.593l-0.08397,0l-0.20466,-0.60262l0,0.60262l-0.09096,0"/>
 </g>
</svg>