<svg xmlns="http://www.w3.org/2000/svg" role="img" width="24" height="24" style=""><rect id="backgroundrect" width="100%" height="100%" x="0" y="0" fill="none" stroke="none" data-darkreader-inline-fill="" data-darkreader-inline-stroke="" style="--darkreader-inline-fill:none; --darkreader-inline-stroke:none;"/><title>Vim icon</title><g class="currentLayer" style=""><title>Layer 1</title><path d="M24,11.986 h-0.027000000000000007 l-4.318,-4.318 l4.303,-4.414 V1.461 l-0.6490000000000001,-0.6480000000000001 h-8.198 l-0.6600000000000001,0.6050000000000001 v1.045 L12.015,0.027000000000000007 V0 L12,0.014000000000000002 L11.986,0 v0.027000000000000007 l-1.29,1.291 l-0.538,-0.539 H2.035 l-0.6380000000000001,0.6920000000000002 v1.8850000000000002 l0.6160000000000001,0.6160000000000001 h0.7200000000000001 v5.3100000000000005 L0.027000000000000007,11.987 H0 L0.014000000000000002,12 L0,12.014 h0.027000000000000007 l2.706,2.706 v6.467 l0.907,0.523 h2.322 l1.8570000000000002,-1.904 l4.166,4.166 V24 l0.015000000000000003,-0.014000000000000002 l0.014000000000000002,0.014000000000000002 v-0.028000000000000004 l2.51,-2.509 h0.48500000000000004 c0.11100000000000002,0 0.21100000000000002,-0.07 0.25,-0.17900000000000002 l0.14600000000000002,-0.42600000000000005 c0.028000000000000004,-0.08400000000000002 0.012000000000000002,-0.17200000000000001 -0.037000000000000005,-0.23900000000000002 l1.462,-1.462 l-0.6120000000000001,1.9620000000000002 c-0.04300000000000001,0.14100000000000001 0.036000000000000004,0.28900000000000003 0.17700000000000002,0.3320000000000001 c0.025000000000000005,0.008000000000000002 0.05200000000000001,0.012000000000000002 0.07800000000000001,0.012000000000000002 h1.824 c0.10600000000000001,-0.0010000000000000002 0.201,-0.06400000000000002 0.24300000000000002,-0.16300000000000003 l0.16500000000000004,-0.3940000000000001 c0.025000000000000005,-0.06500000000000002 0.024000000000000004,-0.138 -0.004000000000000001,-0.203 c-0.027000000000000007,-0.06500000000000002 -0.08000000000000002,-0.11600000000000002 -0.14600000000000002,-0.14200000000000002 c-0.029000000000000005,-0.012000000000000002 -0.06200000000000001,-0.019000000000000003 -0.09700000000000003,-0.020000000000000004 h-0.07500000000000001 l0.8400000000000001,-2.644 h1.232 l-1.016,3.221 c-0.04300000000000001,0.14100000000000001 0.036000000000000004,0.28900000000000003 0.17600000000000002,0.3320000000000001 c0.025000000000000005,0.008000000000000002 0.05200000000000001,0.012000000000000002 0.07900000000000001,0.012000000000000002 h2.002 c0.11000000000000001,0 0.20700000000000002,-0.06600000000000002 0.24800000000000003,-0.17 l0.16400000000000003,-0.42800000000000005 c0.05100000000000001,-0.138 -0.021000000000000005,-0.29000000000000004 -0.15800000000000003,-0.3410000000000001 c-0.029000000000000005,-0.011000000000000003 -0.06000000000000001,-0.017000000000000005 -0.09100000000000003,-0.017000000000000005 h-0.14500000000000002 l1.131,-3.673 c0.027000000000000007,-0.08200000000000002 0.012000000000000002,-0.17300000000000001 -0.03900000000000001,-0.24000000000000002 l-0.37500000000000006,-0.504 l-0.003000000000000001,-0.005000000000000001 c-0.05100000000000001,-0.06400000000000002 -0.127,-0.10200000000000001 -0.20900000000000002,-0.10200000000000001 h-1.436 c-0.07100000000000001,0 -0.14100000000000001,0.030000000000000006 -0.19000000000000003,0.08100000000000002 l-0.4,0.43900000000000006 h-0.6240000000000001 l-0.04200000000000001,-0.04600000000000001 l4.445,-4.445 H24 L23.986,12 l0.014000000000000002,-0.014000000000000002 zM9.838000000000001,21.139 l1.5790000000000002,-4.509 h-0.501 l0.29700000000000004,-0.30400000000000005 h1.6590000000000003 l-1.5630000000000002,4.555 h0.6230000000000001 l-0.07900000000000001,0.258 H9.838000000000001 zm3.6950000000000003,-7.516 l0.15000000000000002,0.15100000000000002 l-0.269,0.922 l-0.22500000000000003,0.22600000000000003 h-0.9690000000000001 l-0.18100000000000002,-0.18100000000000002 l0.31100000000000005,-0.8710000000000001 l0.28800000000000003,-0.24700000000000003 h0.8950000000000001 zM5.59,20.829 H3.8770000000000002 l-0.262,-0.15000000000000002 V3.091 H2.379 l-0.1,-0.1 V1.815 l0.14300000000000002,-0.15400000000000003 h7.371 l0.21300000000000002,0.21400000000000002 v1.108 l-0.14200000000000002,0.17300000000000001 H8.785 v8.688 l8.807,-8.688 h-2.086 l-0.17500000000000002,-0.18800000000000003 V1.8050000000000002 l0.12100000000000001,-0.11100000000000002 h7.49 l0.132,0.133 v1.07 L12.979,13.25 h-0.37300000000000005 c-0.015000000000000003,-0.0010000000000000002 -0.028000000000000004,0 -0.04200000000000001,0.0010000000000000002 l-0.020000000000000004,0.003000000000000001 c-0.04500000000000001,0.010000000000000002 -0.08600000000000002,0.030000000000000006 -0.11900000000000002,0.06000000000000001 l-0.3430000000000001,0.29500000000000004 l-0.004000000000000001,0.003000000000000001 c-0.03300000000000001,0.031000000000000007 -0.05900000000000001,0.06900000000000002 -0.07300000000000001,0.11100000000000002 l-0.29600000000000004,0.8300000000000001 l-6.119,6.276 zm14.768,-3.952 l0.47400000000000003,-0.519 h1.334 l0.30900000000000005,0.41500000000000004 l-1.2650000000000001,4.107 h0.49300000000000005 l-0.08000000000000002,0.20900000000000002 H19.84 l1.124,-3.564 h-2.015 l-1.077,3.391 h0.42400000000000004 l-0.07300000000000001,0.17400000000000002 h-1.605 l1.107,-3.548 h-2.096 l-1.062,3.339 h0.43600000000000005 l-0.07200000000000001,0.20900000000000002 H13.27 l1.514,-4.46 H14.198 l0.09100000000000003,-0.271 h1.6500000000000001 l0.519,0.537 h0.906 l0.49100000000000005,-0.554 h1.061 l0.48900000000000005,0.535 h0.9530000000000001 z" id="svg_1" class="" fill="#ffffff" fill-opacity="1"/></g></svg>