<svg id="Layer_3" data-name="Layer 3" xmlns="http://www.w3.org/2000/svg" viewBox="0 0 487.61 483.5"><defs><style>.cls-1{fill:#161719;}.cls-2,.cls-3{fill:#fff;}.cls-3{stroke:#fff;}</style></defs><title>jad2020-solid</title><path class="cls-1" d="M306,627.4A147.55,147.55,0,0,1,164,519.89c-1,.07-2,.11-2.94.11a40.05,40.05,0,0,1-38.12-52.18,79,79,0,0,1,7.84-150.19A120,120,0,0,1,305.85,180,120.06,120.06,0,0,1,481.09,317.53a79,79,0,0,1,7.84,150.19,40.05,40.05,0,0,1-38.12,52.18c-.93,0-1.86,0-2.78-.1A147.57,147.57,0,0,1,306,627.4Z" transform="translate(-62.13 -153.9)"/><path class="cls-2" d="M365.87,173.9A110,110,0,0,1,467.82,325.26a69,69,0,0,1,6.7,136.27,30,30,0,0,1-33.92,46.59,137.53,137.53,0,0,1-269.19,0,30,30,0,0,1-34.06-46.53,69,69,0,0,1,6.7-136.27A110,110,0,0,1,305.86,191.71a109.38,109.38,0,0,1,60-17.81m0-20a129.52,129.52,0,0,0-60,14.67,130.08,130.08,0,0,0-187,142.48,89,89,0,0,0-7.37,162.62,51.11,51.11,0,0,0-.39,6.33,50.07,50.07,0,0,0,45.53,49.8,157.54,157.54,0,0,0,298.86-.11,50.07,50.07,0,0,0,45.36-49.79,51.11,51.11,0,0,0-.39-6.33A89,89,0,0,0,493.05,311a130,130,0,0,0-127.18-157Z" transform="translate(-62.13 -153.9)"/><circle class="cls-3" cx="296.78" cy="288.1" r="32"/><circle class="cls-3" cx="190.97" cy="288.1" r="32"/></svg>